<mxfile host="app.diagrams.net" agent="Mozilla/5.0 (Windows NT 10.0; Win64; x64) AppleWebKit/537.36 (KHTML, like Gecko) Chrome/131.0.0.0 Safari/537.36" version="26.0.4">
  <diagram name="Page-1" id="VgvYYwzxEkqOY1Lk5nq4">
    <mxGraphModel dx="1114" dy="638" grid="1" gridSize="10" guides="1" tooltips="1" connect="1" arrows="1" fold="1" page="1" pageScale="1" pageWidth="850" pageHeight="1100" math="0" shadow="0">
      <root>
        <mxCell id="0" />
        <mxCell id="1" parent="0" />
        <mxCell id="SJof4bQ2CPUZjuzD9XhG-5" style="edgeStyle=orthogonalEdgeStyle;rounded=0;orthogonalLoop=1;jettySize=auto;html=1;exitX=0.5;exitY=1;exitDx=0;exitDy=0;entryX=0.5;entryY=0;entryDx=0;entryDy=0;" edge="1" parent="1" source="SJof4bQ2CPUZjuzD9XhG-1" target="SJof4bQ2CPUZjuzD9XhG-2">
          <mxGeometry relative="1" as="geometry" />
        </mxCell>
        <mxCell id="SJof4bQ2CPUZjuzD9XhG-1" value="въвеждане на начални параметри" style="rounded=0;whiteSpace=wrap;html=1;" vertex="1" parent="1">
          <mxGeometry x="280" y="80" width="120" height="60" as="geometry" />
        </mxCell>
        <mxCell id="SJof4bQ2CPUZjuzD9XhG-6" style="edgeStyle=orthogonalEdgeStyle;rounded=0;orthogonalLoop=1;jettySize=auto;html=1;exitX=0.5;exitY=1;exitDx=0;exitDy=0;entryX=0.5;entryY=0;entryDx=0;entryDy=0;" edge="1" parent="1" source="SJof4bQ2CPUZjuzD9XhG-2" target="SJof4bQ2CPUZjuzD9XhG-4">
          <mxGeometry relative="1" as="geometry" />
        </mxCell>
        <mxCell id="SJof4bQ2CPUZjuzD9XhG-2" value="цикъл()" style="rounded=0;whiteSpace=wrap;html=1;" vertex="1" parent="1">
          <mxGeometry x="280" y="180" width="120" height="60" as="geometry" />
        </mxCell>
        <mxCell id="SJof4bQ2CPUZjuzD9XhG-9" value="" style="edgeStyle=orthogonalEdgeStyle;rounded=0;orthogonalLoop=1;jettySize=auto;html=1;" edge="1" parent="1" source="SJof4bQ2CPUZjuzD9XhG-4" target="SJof4bQ2CPUZjuzD9XhG-8">
          <mxGeometry relative="1" as="geometry" />
        </mxCell>
        <mxCell id="SJof4bQ2CPUZjuzD9XhG-12" value="" style="edgeStyle=orthogonalEdgeStyle;rounded=0;orthogonalLoop=1;jettySize=auto;html=1;" edge="1" parent="1" source="SJof4bQ2CPUZjuzD9XhG-4" target="SJof4bQ2CPUZjuzD9XhG-11">
          <mxGeometry relative="1" as="geometry" />
        </mxCell>
        <mxCell id="SJof4bQ2CPUZjuzD9XhG-4" value="Обаждане?" style="rhombus;whiteSpace=wrap;html=1;" vertex="1" parent="1">
          <mxGeometry x="280" y="270" width="120" height="110" as="geometry" />
        </mxCell>
        <mxCell id="SJof4bQ2CPUZjuzD9XhG-26" style="edgeStyle=orthogonalEdgeStyle;rounded=0;orthogonalLoop=1;jettySize=auto;html=1;exitX=0.5;exitY=1;exitDx=0;exitDy=0;entryX=0.5;entryY=0;entryDx=0;entryDy=0;" edge="1" parent="1" source="SJof4bQ2CPUZjuzD9XhG-8" target="SJof4bQ2CPUZjuzD9XhG-25">
          <mxGeometry relative="1" as="geometry" />
        </mxCell>
        <mxCell id="SJof4bQ2CPUZjuzD9XhG-8" value="изчакай да две минути за подаване на число през циферблата" style="whiteSpace=wrap;html=1;" vertex="1" parent="1">
          <mxGeometry x="67.5" y="287.5" width="140" height="75" as="geometry" />
        </mxCell>
        <mxCell id="SJof4bQ2CPUZjuzD9XhG-10" value="Да" style="text;html=1;align=center;verticalAlign=middle;whiteSpace=wrap;rounded=0;" vertex="1" parent="1">
          <mxGeometry x="221" y="287.5" width="60" height="30" as="geometry" />
        </mxCell>
        <mxCell id="SJof4bQ2CPUZjuzD9XhG-15" style="edgeStyle=orthogonalEdgeStyle;rounded=0;orthogonalLoop=1;jettySize=auto;html=1;exitX=0.5;exitY=1;exitDx=0;exitDy=0;entryX=0.5;entryY=0;entryDx=0;entryDy=0;" edge="1" parent="1" source="SJof4bQ2CPUZjuzD9XhG-11" target="SJof4bQ2CPUZjuzD9XhG-14">
          <mxGeometry relative="1" as="geometry" />
        </mxCell>
        <mxCell id="SJof4bQ2CPUZjuzD9XhG-11" value="Провери сигнала" style="whiteSpace=wrap;html=1;" vertex="1" parent="1">
          <mxGeometry x="480" y="295" width="120" height="60" as="geometry" />
        </mxCell>
        <mxCell id="SJof4bQ2CPUZjuzD9XhG-13" value="Не" style="text;html=1;align=center;verticalAlign=middle;whiteSpace=wrap;rounded=0;" vertex="1" parent="1">
          <mxGeometry x="400" y="287.5" width="60" height="30" as="geometry" />
        </mxCell>
        <mxCell id="SJof4bQ2CPUZjuzD9XhG-23" style="edgeStyle=orthogonalEdgeStyle;rounded=0;orthogonalLoop=1;jettySize=auto;html=1;exitX=1;exitY=0.5;exitDx=0;exitDy=0;entryX=0;entryY=0.5;entryDx=0;entryDy=0;" edge="1" parent="1" source="SJof4bQ2CPUZjuzD9XhG-14" target="SJof4bQ2CPUZjuzD9XhG-22">
          <mxGeometry relative="1" as="geometry" />
        </mxCell>
        <mxCell id="SJof4bQ2CPUZjuzD9XhG-32" style="edgeStyle=orthogonalEdgeStyle;rounded=0;orthogonalLoop=1;jettySize=auto;html=1;exitX=0;exitY=0.5;exitDx=0;exitDy=0;entryX=0;entryY=0.5;entryDx=0;entryDy=0;" edge="1" parent="1" source="SJof4bQ2CPUZjuzD9XhG-14" target="SJof4bQ2CPUZjuzD9XhG-31">
          <mxGeometry relative="1" as="geometry">
            <Array as="points">
              <mxPoint x="420" y="455" />
              <mxPoint x="420" y="590" />
            </Array>
          </mxGeometry>
        </mxCell>
        <mxCell id="SJof4bQ2CPUZjuzD9XhG-14" value="Добър сигнал?" style="rhombus;whiteSpace=wrap;html=1;" vertex="1" parent="1">
          <mxGeometry x="480" y="400" width="120" height="110" as="geometry" />
        </mxCell>
        <mxCell id="SJof4bQ2CPUZjuzD9XhG-17" value="Да" style="text;html=1;align=center;verticalAlign=middle;whiteSpace=wrap;rounded=0;" vertex="1" parent="1">
          <mxGeometry x="600" y="420" width="60" height="30" as="geometry" />
        </mxCell>
        <mxCell id="SJof4bQ2CPUZjuzD9XhG-24" style="edgeStyle=orthogonalEdgeStyle;rounded=0;orthogonalLoop=1;jettySize=auto;html=1;exitX=1;exitY=0.5;exitDx=0;exitDy=0;entryX=1;entryY=0.5;entryDx=0;entryDy=0;" edge="1" parent="1" source="SJof4bQ2CPUZjuzD9XhG-22" target="SJof4bQ2CPUZjuzD9XhG-2">
          <mxGeometry relative="1" as="geometry" />
        </mxCell>
        <mxCell id="SJof4bQ2CPUZjuzD9XhG-22" value="светни зелено светодиодче" style="rounded=0;whiteSpace=wrap;html=1;" vertex="1" parent="1">
          <mxGeometry x="660" y="425" width="120" height="60" as="geometry" />
        </mxCell>
        <mxCell id="SJof4bQ2CPUZjuzD9XhG-27" style="edgeStyle=orthogonalEdgeStyle;rounded=0;orthogonalLoop=1;jettySize=auto;html=1;exitX=0;exitY=0.5;exitDx=0;exitDy=0;entryX=0;entryY=0.5;entryDx=0;entryDy=0;" edge="1" parent="1" source="SJof4bQ2CPUZjuzD9XhG-25" target="SJof4bQ2CPUZjuzD9XhG-2">
          <mxGeometry relative="1" as="geometry">
            <Array as="points">
              <mxPoint x="10" y="520" />
              <mxPoint x="10" y="210" />
            </Array>
          </mxGeometry>
        </mxCell>
        <mxCell id="SJof4bQ2CPUZjuzD9XhG-38" style="edgeStyle=orthogonalEdgeStyle;rounded=0;orthogonalLoop=1;jettySize=auto;html=1;exitX=1;exitY=0.5;exitDx=0;exitDy=0;" edge="1" parent="1" source="SJof4bQ2CPUZjuzD9XhG-25" target="SJof4bQ2CPUZjuzD9XhG-37">
          <mxGeometry relative="1" as="geometry">
            <Array as="points">
              <mxPoint x="300" y="520" />
            </Array>
          </mxGeometry>
        </mxCell>
        <mxCell id="SJof4bQ2CPUZjuzD9XhG-25" value="&lt;div&gt;&lt;br&gt;&lt;/div&gt;Подаден ли е пин кода на сим картата?" style="rhombus;whiteSpace=wrap;html=1;" vertex="1" parent="1">
          <mxGeometry x="60" y="440" width="155" height="160" as="geometry" />
        </mxCell>
        <mxCell id="SJof4bQ2CPUZjuzD9XhG-28" value="Не" style="text;html=1;align=center;verticalAlign=middle;whiteSpace=wrap;rounded=0;" vertex="1" parent="1">
          <mxGeometry x="10" y="480" width="60" height="30" as="geometry" />
        </mxCell>
        <mxCell id="SJof4bQ2CPUZjuzD9XhG-29" value="Да" style="text;html=1;align=center;verticalAlign=middle;whiteSpace=wrap;rounded=0;" vertex="1" parent="1">
          <mxGeometry x="221" y="485" width="60" height="30" as="geometry" />
        </mxCell>
        <mxCell id="SJof4bQ2CPUZjuzD9XhG-34" value="" style="edgeStyle=orthogonalEdgeStyle;rounded=0;orthogonalLoop=1;jettySize=auto;html=1;entryX=0;entryY=0.5;entryDx=0;entryDy=0;exitX=1;exitY=0.5;exitDx=0;exitDy=0;" edge="1" parent="1" source="SJof4bQ2CPUZjuzD9XhG-31" target="SJof4bQ2CPUZjuzD9XhG-33">
          <mxGeometry relative="1" as="geometry">
            <Array as="points">
              <mxPoint x="500" y="590" />
              <mxPoint x="500" y="590" />
            </Array>
          </mxGeometry>
        </mxCell>
        <mxCell id="SJof4bQ2CPUZjuzD9XhG-31" value="светни червено светодиодче" style="rounded=0;whiteSpace=wrap;html=1;" vertex="1" parent="1">
          <mxGeometry x="480" y="560" width="120" height="60" as="geometry" />
        </mxCell>
        <mxCell id="SJof4bQ2CPUZjuzD9XhG-35" style="edgeStyle=orthogonalEdgeStyle;rounded=0;orthogonalLoop=1;jettySize=auto;html=1;exitX=1;exitY=0.5;exitDx=0;exitDy=0;entryX=1;entryY=0.5;entryDx=0;entryDy=0;" edge="1" parent="1" source="SJof4bQ2CPUZjuzD9XhG-33" target="SJof4bQ2CPUZjuzD9XhG-2">
          <mxGeometry relative="1" as="geometry">
            <Array as="points">
              <mxPoint x="800" y="595" />
              <mxPoint x="800" y="210" />
            </Array>
          </mxGeometry>
        </mxCell>
        <mxCell id="SJof4bQ2CPUZjuzD9XhG-33" value="изчакай 30 секунди" style="whiteSpace=wrap;html=1;rounded=0;" vertex="1" parent="1">
          <mxGeometry x="660" y="560" width="120" height="60" as="geometry" />
        </mxCell>
        <mxCell id="SJof4bQ2CPUZjuzD9XhG-37" value="активирай по-сложни процеси" style="rounded=0;whiteSpace=wrap;html=1;" vertex="1" parent="1">
          <mxGeometry x="240" y="560" width="120" height="60" as="geometry" />
        </mxCell>
        <mxCell id="SJof4bQ2CPUZjuzD9XhG-39" value="Не" style="text;html=1;align=center;verticalAlign=middle;whiteSpace=wrap;rounded=0;" vertex="1" parent="1">
          <mxGeometry x="425" y="420" width="60" height="30" as="geometry" />
        </mxCell>
      </root>
    </mxGraphModel>
  </diagram>
</mxfile>
